<svg width="19" height="18" viewBox="0 0 19 18" fill="none" xmlns="http://www.w3.org/2000/svg">
<g clip-path="url(#clip0_3038_8360)">
<path d="M16.3069 8.15734H11.7184C10.7527 8.15734 9.96705 7.37168 9.96705 6.40599V1.81746C9.96705 0.851768 10.7527 0.0661134 11.7184 0.0661134H16.3069C17.2726 0.0661134 18.0583 0.851768 18.0583 1.81746V6.40599C18.0583 7.37168 17.2726 8.15734 16.3069 8.15734ZM11.7184 1.81746V6.40599H16.3069V1.81746H11.7184ZM4.36274 17.9999C2.04501 17.9999 0.159507 16.1144 0.159507 13.7967C0.159507 11.4789 2.04501 9.59344 4.36274 9.59344C6.68047 9.59344 8.56598 11.4789 8.56598 13.7967C8.56598 16.1144 6.68047 17.9999 4.36274 17.9999ZM4.36274 11.3448C3.0107 11.3448 1.91085 12.4446 1.91085 13.7967C1.91085 15.1487 3.0107 16.2486 4.36274 16.2486C5.71478 16.2486 6.81463 15.1487 6.81463 13.7967C6.81463 12.4446 5.71478 11.3448 4.36274 11.3448ZM6.20201 8.14403C6.78906 8.45262 7.47524 7.95418 7.36315 7.30093L7.02234 5.3142L8.4665 3.90717C8.94146 3.44446 8.67946 2.63814 8.02306 2.54287L6.02722 2.2532L5.13474 0.445805C4.84121 -0.148602 3.99286 -0.148602 3.69933 0.445805L2.80684 2.2532L0.811008 2.54287C0.154603 2.63814 -0.107398 3.44446 0.367567 3.90717L1.81173 5.3142L1.47092 7.30093C1.35883 7.95418 2.04501 8.45262 2.63206 8.14403L4.41738 7.20601L6.20271 8.14403H6.20201ZM17.4204 11.5536C16.57 10.7031 15.1906 10.7031 14.3402 11.5536L13.7643 12.1294L13.1885 11.5536C12.338 10.7031 10.9587 10.7031 10.1082 11.5536C9.25776 12.404 9.25776 13.7834 10.1082 14.6338L10.6841 15.2097L13.2288 17.7544C13.5247 18.0504 14.0043 18.0504 14.3002 17.7544L16.8449 15.2097L17.4208 14.6338C18.2712 13.7834 18.2712 12.404 17.4208 11.5536H17.4204Z" fill="#EA7E11"/>
</g>
<defs>
<clipPath id="clip0_3038_8360">
<rect width="18" height="18" fill="white" transform="translate(0.125)"/>
</clipPath>
</defs>
</svg>
