<svg width="19" height="18" viewBox="0 0 19 18" fill="none" xmlns="http://www.w3.org/2000/svg">
<g clip-path="url(#clip0_3038_8372)">
<path d="M16.1387 12.6281L10.7949 10.9406C10.482 10.8422 10.141 10.9265 9.90897 11.1586C9.67694 11.3906 9.59257 11.7316 9.69101 12.0445L11.3785 17.3883C11.4945 17.7539 11.832 18.0035 12.2152 18.0035C12.2187 18.0035 12.2223 18.0035 12.2293 18.0035C12.616 17.9965 12.957 17.7398 13.0625 17.3637L13.7375 14.9871L16.1141 14.3121C16.4867 14.2066 16.7469 13.8691 16.7539 13.4789C16.7609 13.0887 16.5113 12.7441 16.1387 12.6281Z" fill="#119D94"/>
<path d="M17.2461 0.316406H11.6211C11.1359 0.316406 10.7422 0.710156 10.7422 1.19531C10.7422 2.06719 10.032 2.77734 9.16016 2.77734C8.28828 2.77734 7.57812 2.06719 7.57812 1.19531C7.57812 0.710156 7.18437 0.316406 6.69922 0.316406H1.00391C0.51875 0.316406 0.125 0.710156 0.125 1.19531V5.66016C0.125 6.14531 0.51875 6.53906 1.00391 6.53906H2.58594V15.3281C2.58594 16.5727 3.58789 17.5887 4.82539 17.6133C4.83945 17.6133 4.85703 17.6133 4.87109 17.6133H9.61016L9.05469 15.8555H4.87109C4.5793 15.8555 4.34375 15.6199 4.34375 15.3281V5.66016C4.34375 5.175 3.95 4.78125 3.46484 4.78125H1.88281V2.07422H5.93633C6.32305 3.49102 7.62031 4.53516 9.16016 4.53516C10.7 4.53516 11.9973 3.49102 12.384 2.07422H16.3672V4.78125H14.7852C14.3 4.78125 13.9062 5.175 13.9062 5.66016V10.0793L15.6641 10.6348V6.53906H17.2461C17.7313 6.53906 18.125 6.14531 18.125 5.66016V1.19531C18.125 0.710156 17.7313 0.316406 17.2461 0.316406Z" fill="#119D94"/>
<path d="M6.62891 10.9336C6.14375 10.9336 5.75 11.3273 5.75 11.8125V12.8672C5.75 13.3523 6.14375 13.7461 6.62891 13.7461H7.64844C8.13359 13.7461 8.52734 13.3523 8.52734 12.8672C8.52734 12.382 8.13359 11.9883 7.64844 11.9883H7.50781V11.8125C7.50781 11.3273 7.11406 10.9336 6.62891 10.9336Z" fill="#119D94"/>
<path d="M11.6211 9.73828C12.1062 9.73828 12.5 9.34453 12.5 8.85938V7.80469C12.5 7.31953 12.1062 6.92578 11.6211 6.92578H10.5664C10.0813 6.92578 9.6875 7.31953 9.6875 7.80469C9.6875 8.28984 10.0813 8.68359 10.5664 8.68359H10.7422V8.85938C10.7422 9.34453 11.1359 9.73828 11.6211 9.73828Z" fill="#119D94"/>
<path d="M7.68359 6.92578H6.62891C6.14375 6.92578 5.75 7.31953 5.75 7.80469V8.85938C5.75 9.34453 6.14375 9.73828 6.62891 9.73828C7.11406 9.73828 7.50781 9.34453 7.50781 8.85938V8.68359H7.68359C8.16875 8.68359 8.5625 8.28984 8.5625 7.80469C8.5625 7.31953 8.16875 6.92578 7.68359 6.92578Z" fill="#119D94"/>
</g>
<defs>
<clipPath id="clip0_3038_8372">
<rect width="18" height="18" fill="white" transform="translate(0.125)"/>
</clipPath>
</defs>
</svg>
