<svg width="19" height="18" viewBox="0 0 19 18" fill="none" xmlns="http://www.w3.org/2000/svg">
<path d="M14.6006 7.65444C14.6006 8.6631 13.78 9.48371 12.7713 9.48371C11.7627 9.48371 10.942 8.6631 10.942 7.65444C10.942 6.64578 11.7627 5.82517 12.7713 5.82517C13.78 5.82517 14.6006 6.64578 14.6006 7.65444Z" fill="#EB644C"/>
<path fill-rule="evenodd" clip-rule="evenodd" d="M16.247 1.80078H3.00305C1.69179 1.80078 0.625 2.86757 0.625 4.17883V14.4957C0.625 14.5109 0.625402 14.5261 0.626134 14.5413C0.650537 15.8316 1.70701 16.874 3.00305 16.874H16.247C17.5582 16.874 18.625 15.8072 18.625 14.4959V4.17883C18.625 2.86757 17.5582 1.80078 16.247 1.80078ZM3.00304 3.63005H16.2469C16.5495 3.63005 16.7957 3.87623 16.7957 4.17883V14.4959C16.7957 14.5777 16.7772 14.6551 16.745 14.7249L13.9669 11.9467C13.6097 11.5895 13.0306 11.5895 12.6734 11.9467L11.4543 13.1658L7.16199 8.87354C6.80477 8.51635 6.2257 8.51635 5.86852 8.87354L2.45426 12.2878V4.17883C2.45426 3.87623 2.70044 3.63005 3.00304 3.63005Z" fill="#EB644C"/>
</svg>
