<svg width="19" height="18" viewBox="0 0 19 18" fill="none" xmlns="http://www.w3.org/2000/svg">
<g clip-path="url(#clip0_3038_8369)">
<path d="M14.761 5.33911H12.1715C11.6947 5.33911 11.3084 4.95276 11.3084 4.47595V1.88647H4.50666C4.22113 1.88647 3.98877 2.11884 3.98877 2.40437V8.10122C3.98877 8.57803 3.60242 8.96438 3.12561 8.96438C2.6488 8.96438 2.26245 8.57803 2.26245 8.10122V2.40437C2.26245 1.16695 3.26924 0.160156 4.50666 0.160156C4.50666 0.160156 11.8263 0.160156 12.1715 0.160156C12.5168 0.160156 12.7274 0.358683 12.7819 0.412889L16.2346 3.86553C16.2891 3.92008 16.4873 4.13069 16.4873 4.47595C16.4873 4.82122 16.4873 8.10122 16.4873 8.10122C16.4873 8.57803 16.101 8.96438 15.6242 8.96438C15.1473 8.96438 14.761 8.57803 14.761 8.10122V5.33911ZM5.94918 13.0212C5.94918 14.4775 4.76423 15.6621 3.30791 15.6621H2.26245V16.9745C2.26245 17.4513 1.8761 17.8377 1.39929 17.8377C0.922483 17.8377 0.536133 17.4513 0.536133 16.9745V11.2431C0.536133 10.7663 0.922483 10.38 1.39929 10.38H3.30791C4.76423 10.38 5.94918 11.5646 5.94918 13.0212ZM4.22286 13.0212C4.22286 12.5165 3.81234 12.1063 3.30791 12.1063H2.26245V13.9362H3.30791C3.81234 13.9362 4.22286 13.5257 4.22286 13.0212ZM18.2136 13.66V14.5577C18.2136 16.3661 16.7421 17.8377 14.9336 17.8377H13.2418C12.765 17.8377 12.3787 17.4513 12.3787 16.9745V11.2431C12.3787 10.7663 12.765 10.38 13.2418 10.38H14.9336C16.7421 10.38 18.2136 11.8515 18.2136 13.66ZM16.4873 13.66C16.4873 12.8034 15.7902 12.1063 14.9336 12.1063H14.105V16.1113H14.9336C15.7902 16.1113 16.4873 15.4143 16.4873 14.5577V13.66ZM9.47294 13.2543C9.02133 13.0637 8.4589 12.8268 8.4589 12.6187C8.4589 12.1208 9.01857 12.1063 9.08244 12.1063C9.35313 12.1063 9.80439 12.3383 10.0219 12.4933C10.4083 12.7733 10.9476 12.687 11.2276 12.3007C11.5072 11.9147 11.4213 11.375 11.0353 11.0953C10.8702 10.9759 10.0012 10.38 9.08279 10.38C7.74317 10.38 6.73292 11.3426 6.73292 12.6187C6.73292 13.9724 7.97829 14.4972 8.80243 14.8449C9.42046 15.1056 9.85825 15.3083 9.85825 15.5417C9.85825 15.9332 9.45602 16.1113 9.08244 16.1113C8.8014 16.1113 8.22446 15.831 7.91649 15.6293C7.51909 15.3673 6.98428 15.4767 6.72153 15.8735C6.45844 16.2708 6.56754 16.8067 6.96529 17.0698C7.15933 17.1979 8.17233 17.838 9.08279 17.838C10.5091 17.838 11.5849 16.8509 11.5849 15.542C11.5846 14.1447 10.3137 13.6089 9.47294 13.2543Z" fill="#336AEA"/>
</g>
<defs>
<clipPath id="clip0_3038_8369">
<rect width="18" height="18" fill="white" transform="translate(0.375)"/>
</clipPath>
</defs>
</svg>
