<svg width="19" height="18" viewBox="0 0 19 18" fill="none" xmlns="http://www.w3.org/2000/svg">
<path d="M16.8672 4.70039V4.69688C16.8672 4.6793 16.8637 4.66172 16.8637 4.64414C16.8637 4.64062 16.8637 4.63359 16.8602 4.63008C16.8566 4.6125 16.8531 4.59141 16.8496 4.57383C16.8461 4.55625 16.8426 4.53516 16.8355 4.51758C16.8355 4.51406 16.832 4.50703 16.832 4.50352C16.8285 4.48594 16.8215 4.46836 16.8145 4.4543V4.45078C16.8074 4.4332 16.8004 4.41562 16.7934 4.39805C16.7898 4.39453 16.7898 4.3875 16.7863 4.38398C16.7793 4.36992 16.7723 4.35234 16.7652 4.33828C16.7652 4.33477 16.7617 4.33477 16.7617 4.33125C16.7547 4.31367 16.7441 4.29961 16.7336 4.28203C16.7301 4.27852 16.7266 4.27148 16.7266 4.26797C16.716 4.25391 16.709 4.23984 16.6984 4.22578L16.6949 4.22227C16.6844 4.2082 16.6703 4.19063 16.6598 4.17656C16.6563 4.17305 16.6527 4.16953 16.6492 4.16602C16.6352 4.15195 16.6246 4.13789 16.6105 4.12383L13.0949 0.608203C13.0809 0.594141 13.0668 0.580078 13.0527 0.569531C13.0492 0.566016 13.0457 0.5625 13.0422 0.558984C13.0281 0.548437 13.0141 0.534375 12.9965 0.523828C12.993 0.523828 12.993 0.520313 12.9895 0.520313C12.9754 0.509766 12.9613 0.499219 12.9473 0.492188C12.9438 0.488672 12.9367 0.485156 12.9332 0.481641C12.9191 0.471094 12.9016 0.464062 12.8875 0.453516C12.884 0.453516 12.8805 0.45 12.8805 0.45C12.8664 0.442969 12.8523 0.435937 12.8383 0.428906C12.8348 0.425391 12.8277 0.425391 12.8242 0.421875C12.8066 0.414844 12.7891 0.407812 12.775 0.400781C12.7715 0.400781 12.7715 0.400781 12.768 0.397266C12.7539 0.390234 12.7363 0.386719 12.7188 0.383203C12.7152 0.383203 12.7082 0.379688 12.7047 0.379688C12.6871 0.376172 12.6695 0.369141 12.652 0.365625H12.6484C12.6309 0.362109 12.6133 0.358594 12.5957 0.358594C12.5887 0.358594 12.5852 0.358594 12.5781 0.355078C12.5605 0.351563 12.543 0.351562 12.5289 0.351562C12.5254 0.351562 12.5254 0.351562 12.5219 0.351562C12.5078 0.351562 12.4938 0.351562 12.4797 0.351562H4.66797C3.40938 0.351562 2.38281 1.37813 2.38281 2.63672V15.3633C2.38281 16.6219 3.40938 17.6484 4.66797 17.6484H14.582C15.8406 17.6484 16.8672 16.6219 16.8672 15.3633V4.74609C16.8672 4.73203 16.8672 4.71797 16.8672 4.70039ZM14.582 15.8906H4.66797C4.37617 15.8906 4.14062 15.6551 4.14062 15.3633V2.63672C4.14062 2.34492 4.37617 2.10938 4.66797 2.10938H11.5938V4.74609C11.5938 5.23125 11.9875 5.625 12.4727 5.625H15.1094V15.3633C15.1094 15.6551 14.8738 15.8906 14.582 15.8906Z" fill="#B07CC6"/>
<path d="M12.4727 7.38281H6.77734C6.29219 7.38281 5.89844 7.77656 5.89844 8.26172V13.2539C5.89844 13.7391 6.29219 14.1328 6.77734 14.1328H12.4727C12.9578 14.1328 13.3516 13.7391 13.3516 13.2539V8.26172C13.3516 7.77656 12.9578 7.38281 12.4727 7.38281ZM11.5938 12.375H7.65625V9.14062H11.5938V12.375Z" fill="#B07CC6"/>
<path d="M6.8125 5.625H8.95703C9.44219 5.625 9.83594 5.23125 9.83594 4.74609C9.83594 4.26094 9.44219 3.86719 8.95703 3.86719H6.8125C6.32734 3.86719 5.93359 4.26094 5.93359 4.74609C5.93359 5.23125 6.32734 5.625 6.8125 5.625Z" fill="#B07CC6"/>
</svg>
