<svg width="19" height="18" viewBox="0 0 19 18" fill="none" xmlns="http://www.w3.org/2000/svg">
<g clip-path="url(#clip0_3038_8363)">
<path d="M18.1505 5.05195C17.9185 4.88672 17.6197 4.84453 17.349 4.94297L13.9177 6.15937V5.30859C13.9177 4.05 12.8912 3.02344 11.6326 3.02344H3.51147C2.25288 3.02344 1.22632 4.05 1.22632 5.30859V12.6914C1.22632 13.95 2.25288 14.9766 3.51147 14.9766H11.6326C12.8912 14.9766 13.9177 13.95 13.9177 12.6914V11.8617L17.349 13.0816C17.4439 13.1168 17.5423 13.1309 17.6443 13.1309C17.8236 13.1309 17.9994 13.0746 18.1505 12.9691C18.3826 12.8039 18.5232 12.5367 18.5232 12.252V5.77266C18.5232 5.48438 18.3861 5.21719 18.1505 5.05195ZM12.1599 12.6914C12.1599 12.9832 11.9244 13.2188 11.6326 13.2188H3.51147C3.21968 13.2188 2.98413 12.9832 2.98413 12.6914V5.30859C2.98413 5.0168 3.21968 4.78125 3.51147 4.78125H11.6326C11.9244 4.78125 12.1599 5.0168 12.1599 5.30859V12.6914ZM16.7654 11.0074L13.9669 10.0125C13.9494 10.0055 13.9353 10.002 13.9177 9.99844V8.02266C13.9353 8.01914 13.9494 8.01211 13.9669 8.00859L16.7654 7.01367V11.0074Z" fill="#3B9E62"/>
</g>
<defs>
<clipPath id="clip0_3038_8363">
<rect width="18" height="18" fill="white" transform="translate(0.875)"/>
</clipPath>
</defs>
</svg>
