<svg xmlns="http://www.w3.org/2000/svg" width="500" height="500" viewBox="0 0 500 500">
<g>
<path d="M 213.98 484.00 C183.53,481.25 156.93,473.56 129.00,459.44 C104.52,447.07 87.65,434.79 68.00,415.05 C49.63,396.60 36.44,378.12 24.43,354.00 C9.08,323.17 1.45,292.39 0.29,256.50 C-0.66,227.44 2.91,203.10 12.20,175.11 C31.98,115.58 75.79,66.04 133.33,38.15 C202.61,4.57 287.02,8.06 353.25,47.23 C356.96,49.43 360.00,51.38 360.00,51.56 C360.00,51.74 356.58,50.33 352.40,48.42 C315.27,31.50 268.58,25.39 227.50,32.07 C198.63,36.76 166.40,49.22 142.00,65.11 C123.56,77.11 102.21,96.59 89.23,113.25 L 83.97 120.00 L 124.65 120.00 L 178.41 193.25 C207.97,233.54 246.52,286.14 264.08,310.14 L 296.00 353.77 L 296.00 380.00 L 237.43 380.00 L 130.50 233.84 L 130.24 306.92 L 129.99 380.00 L 107.49 380.00 C95.12,380.00 85.00,380.29 85.00,380.64 C85.00,380.99 87.58,384.48 90.74,388.39 C122.59,427.87 167.60,455.52 217.00,465.97 C222.23,467.08 233.48,468.72 242.00,469.62 C255.16,471.01 259.95,471.09 273.77,470.11 C301.86,468.13 328.08,462.00 351.13,452.00 C356.01,449.88 360.00,448.29 360.00,448.47 C360.00,448.64 355.43,451.40 349.85,454.58 C325.26,468.63 297.60,477.92 267.00,482.41 C253.93,484.33 226.62,485.15 213.98,484.00 ZM 257.00 453.30 C235.34,451.99 201.21,444.84 181.43,437.46 C171.22,433.66 162.16,429.30 167.00,430.53 C168.38,430.88 181.65,431.40 196.50,431.70 C236.60,432.49 258.39,429.30 275.46,420.14 C282.63,416.30 283.02,415.90 304.67,390.76 C317.02,376.42 332.52,365.50 346.05,361.60 C349.05,360.74 357.64,359.15 365.15,358.07 C372.66,356.99 380.42,355.43 382.40,354.61 L 386.00 353.10 L 386.00 282.00 L 296.05 282.00 L 295.78 296.90 L 295.50 311.80 L 232.06 225.50 L 232.00 120.00 L 296.00 120.00 L 296.00 218.00 L 386.00 218.00 L 386.00 120.00 L 450.00 120.00 L 450.00 213.54 C450.00,297.19 450.01,306.05 451.51,309.01 C450.74,308.36 449.75,308.00 448.58,308.00 C446.36,308.00 444.53,309.81 434.14,322.26 C432.78,323.89 432.91,323.97 435.84,323.38 C443.01,321.95 444.08,328.47 438.18,337.59 C433.39,345.00 425.09,354.01 413.50,364.35 C408.55,368.78 404.34,372.77 404.15,373.24 C402.87,376.36 423.79,366.63 437.00,357.96 C451.78,348.26 457.34,343.52 463.44,335.19 C459.92,340.15 460.29,339.88 463.49,337.44 C469.28,333.03 479.78,319.22 484.11,310.34 C486.30,305.85 488.72,301.65 489.48,301.01 C491.68,299.19 496.12,300.25 498.24,303.11 C500.17,305.71 500.17,305.73 497.45,312.61 C483.78,347.11 451.41,384.65 413.51,409.96 C364.77,442.51 313.51,456.71 257.00,453.30 ZM 65.92 249.75 L 65.85 149.50 L 61.83 158.00 C56.86,168.51 49.76,189.49 47.08,201.57 C38.77,239.11 40.80,281.79 52.60,317.87 C55.81,327.67 64.87,350.00 65.64,350.00 C65.84,350.00 65.97,304.89 65.92,249.75 ZM 391.00 351.47 C391.00,352.48 407.85,343.37 413.29,339.41 C421.73,333.27 424.50,325.68 419.50,322.41 C417.21,320.91 416.79,320.91 414.59,322.35 C412.25,323.88 391.00,350.12 391.00,351.47 ZM 451.64 320.13 C450.68,323.26 450.05,326.47 450.20,327.64 C450.36,328.90 450.73,329.13 452.20,327.59 C447.66,333.22 443.42,338.23 441.99,339.50 C440.30,341.00 440.61,340.13 443.23,336.00 C446.90,330.23 449.87,324.59 451.64,320.13 ZM 452.83 310.91 L 454.13 312.67 L 452.98 316.10 C453.46,314.09 453.37,312.29 452.83,310.91 ZM 474.70 317.36 C472.35,321.89 468.95,327.45 465.21,332.70 C469.07,327.17 472.41,321.74 474.70,317.36 ZM 462.95 313.78 C464.04,312.25 464.96,310.92 465.54,310.00 C465.97,309.31 466.44,308.61 466.90,307.95 C466.56,308.46 466.23,308.99 465.93,309.50 C465.40,310.39 464.34,311.90 462.95,313.78 ZM 471.49 303.32 C472.68,302.91 473.91,303.02 474.97,303.53 C473.91,303.02 472.69,302.92 471.49,303.32 Z" fill="rgba(0,73,173,1)"/>
<path d="M 404.15 373.24 C404.34,372.77 408.55,368.78 413.50,364.35 C425.09,354.01 433.39,345.00 438.18,337.59 C444.08,328.47 443.01,321.95 435.84,323.38 C432.91,323.97 432.78,323.89 434.14,322.26 C444.53,309.81 446.36,308.00 448.58,308.00 C452.33,308.00 454.20,311.71 452.86,316.54 C451.55,321.31 447.97,328.54 443.23,336.00 C440.61,340.13 440.30,341.00 441.99,339.50 C445.25,336.61 463.12,314.21 465.93,309.50 C467.24,307.30 469.00,304.94 469.84,304.25 C473.34,301.41 478.01,304.03 477.99,308.82 C477.97,312.22 472.08,323.05 464.30,334.00 C457.83,343.09 452.46,347.81 437.00,357.96 C423.79,366.63 402.87,376.36 404.15,373.24 ZM 391.00 351.47 C391.00,350.12 412.25,323.88 414.59,322.35 C416.79,320.91 417.21,320.91 419.50,322.41 C424.50,325.68 421.73,333.27 413.29,339.41 C407.85,343.37 391.00,352.48 391.00,351.47 Z" fill="rgba(104,161,204,1)"/>
</g>
</svg>